HIERARCHY
ROOT root     
{
	OFFSET 0.0000 0.0000 0.0000
	CHANNELS 6 Xposition Yposition Zposition Zrotation Yrotation Xrotation
	JOINT pelvis   
	{
		OFFSET 0.0000 0.0000 0.0000
		CHANNELS 3 Zrotation Yrotation Xrotation
		JOINT thorax   
		{
			OFFSET 0.0000 23.0750 -5.0000
			CHANNELS 3 Zrotation Yrotation Xrotation
			JOINT rclavicle
			{
				OFFSET 0.0000 28.0009 0.0000
				CHANNELS 3 Zrotation Yrotation Xrotation
				JOINT rhumerus 
				{
					OFFSET -18.5725 5.5939 0.0000
					CHANNELS 3 Zrotation Yrotation Xrotation
					JOINT rradius  
					{
						OFFSET -24.8459 0.0000 0.0000
						CHANNELS 3 Zrotation Yrotation Xrotation
						JOINT rhand    
						{
							OFFSET -24.5477 0.0000 0.0000
							CHANNELS 3 Zrotation Yrotation Xrotation
							End Site
							{
								OFFSET -8.1826 0.0000 0.0000
							}
						}
					}
				}
			}
			JOINT lclavicle
			{
				OFFSET 0.0000 28.0009 0.0000
				CHANNELS 3 Zrotation Yrotation Xrotation
				JOINT lhumerus 
				{
					OFFSET 18.5725 5.5939 0.0000
					CHANNELS 3 Zrotation Yrotation Xrotation
					JOINT lradius  
					{
						OFFSET 24.8459 0.0000 0.0000
						CHANNELS 3 Zrotation Yrotation Xrotation
						JOINT lhand    
						{
							OFFSET 24.5477 0.0000 0.0000
							CHANNELS 3 Zrotation Yrotation Xrotation
							End Site
							{
								OFFSET 8.1826 0.0000 0.0000
							}
						}
					}
				}
			}
			JOINT head     
			{
				OFFSET 0.0000 35.2030 0.0000
				CHANNELS 3 Zrotation Yrotation Xrotation
				End Site
				{
					OFFSET 0.0000 11.7343 0.0000
				}
			}
		}
		JOINT rfemur   
		{
			OFFSET -8.2817 0.0000 0.0000
			CHANNELS 3 Zrotation Yrotation Xrotation
			JOINT rtibia   
			{
				OFFSET 0.0000 -43.3627 0.0000
				CHANNELS 3 Zrotation Yrotation Xrotation
				JOINT rfoot    
				{
					OFFSET 0.0000 -38.2947 0.0000
					CHANNELS 3 Zrotation Yrotation Xrotation
					JOINT rtoes    
					{
						OFFSET 0.0000 0.0000 16.6054
						CHANNELS 3 Zrotation Yrotation Xrotation
						End Site
						{
							OFFSET 0.0000 0.0000 5.5351
						}
					}
				}
			}
		}
		JOINT lfemur   
		{
			OFFSET 8.2817 0.0000 0.0000
			CHANNELS 3 Zrotation Yrotation Xrotation
			JOINT ltibia   
			{
				OFFSET 0.0000 -43.3627 0.0000
				CHANNELS 3 Zrotation Yrotation Xrotation
				JOINT lfoot    
				{
					OFFSET 0.0000 -38.2947 0.0000
					CHANNELS 3 Zrotation Yrotation Xrotation
					JOINT ltoes    
					{
						OFFSET 0.0000 0.0000 16.6054
						CHANNELS 3 Zrotation Yrotation Xrotation
						End Site
						{
							OFFSET 0.0000 0.0000 5.5351
						}
					}
				}
			}
		}
	}
}
MOTION
Frames: 8
Frame Time: .0333333
-3.5123 73.257 -0.2532 -25.9494 87.9342 3.35846 0 -0 0 15.8881 -6.77132 12.7851 19.0264 -12.8332 -7.52055e-05 56.1701 -5.54536 -7.16717 180 84.7008 180 -9.70505 1.22815 -0.104304 -5.66644 17.1162 2.90667e-05 -56.7371 16.0669 11.9132 180 -83.3469 -180 -7.54905 5.3175 -0.351103 9.43725 -5.16952 -22.1571 10.4811 -12.1974 -61.362 -0 -0 69.3181 -8.47871e-06 -8.79416 -21.8097 3.28953 6.40063e-06 -24.7993 0.211676 6.61587 -33.6645 -0 -0 84.9215 6.02866e-06 23.2457 -11.1211 -4.73624 2.9693e-06 -11.4795 
-2.6387 73.594 -0.2449 -22.3838 88.0332 7.22905 0 -0 0 15.597 -6.25147 13.1726 18.5361 -12.5273 -5.41923e-05 56.2707 -4.71064 -6.58942 180 84.0359 180 -10.2483 1.2208 -0.109499 -5.67917 16.8842 -1.76194e-05 -56.8661 16.3336 12.9611 180 -84.7257 180 -7.33507 5.87485 -0.376899 9.47986 -5.4108 -21.7278 10.2542 -12.3497 -60.5327 -0 -0 68.4246 4.65363e-05 -8.92611 -21.9616 3.36166 2.3615e-06 -25.2987 -0.498036 6.6758 -36.8114 -0 -0 86.6071 0.000143113 23.4044 -12.3948 -5.30831 -2.87086e-06 -9.30875 
-1.7669 73.927 -0.2341 -18.5829 88.1631 11.3285 0 -0 0 15.2723 -5.75926 13.5434 17.9704 -12.2409 3.97852e-05 56.2933 -3.93704 -5.89364 -180 83.3624 -180 -10.6859 1.23532 -0.115501 -5.65659 16.658 1.21655e-05 -56.9223 16.6695 14.041 180 -85.9962 180 -7.25471 6.37697 -0.404697 9.48621 -5.62534 -21.1518 10.0175 -12.4781 -59.7153 -0 -0 67.5243 5.58351e-05 -9.06203 -22.0381 3.42481 1.38271e-05 -25.6905 -1.22207 6.67348 -40.0261 -0 -0 88.0627 0.000170868 23.3645 -13.4066 -5.7202 5.13508e-06 -7.56622 
-0.8911 74.254 -0.2208 -14.5124 88.2637 15.7013 0 -0 0 14.9153 -5.28595 13.9147 17.3355 -11.9773 -9.8471e-06 56.2379 -3.22224 -5.1021 -180 82.69 -180 -10.9964 1.2739 -0.1226 -5.60412 16.4524 -2.87114e-05 -56.9151 17.0712 15.1458 180 -87.1687 180 -7.31297 6.80147 -0.435206 9.45528 -5.81308 -20.4522 9.77195 -12.576 -58.8918 -0 -0 66.6263 4.04718e-05 -9.19673 -22.0612 3.48004 2.18148e-05 -25.9697 -1.95645 6.62668 -43.2711 -0 -0 89.2581 -0.000129866 23.1942 -14.1849 -5.9937 9.22462e-08 -6.16914 
-0.0062 74.575 -0.2049 -10.3915 88.353 20.1069 0 -0 0 14.53 -4.82406 14.2953 16.6429 -11.7371 -0.000106008 56.0977 -2.56738 -4.23946 180 81.9873 180 -11.1648 1.33485 -0.130504 -5.53036 16.2733 -1.38627e-05 -56.8479 17.5376 16.2666 180 -88.2465 -180 -7.49927 7.13332 -0.468104 9.38648 -5.97532 -19.6529 9.51971 -12.6413 -58.0516 -0 -0 65.7306 3.77728e-05 -9.32925 -22.0519 3.5294 3.77671e-06 -26.1914 -2.69684 6.54668 -46.5081 -0 -0 90.1614 3.19356e-05 22.9616 -14.7636 -6.16223 4.31151e-06 -5.09561 
0.8933 74.887 -0.1868 -6.40852 88.4436 24.3357 0 -0 0 14.1205 -4.367 14.6964 15.9036 -11.5222 4.13791e-05 55.8674 -1.96944 -3.33243 -180 81.2474 -180 -11.178 1.41832 -0.138802 -5.44654 16.1302 -1.85179e-05 -56.7223 18.0662 17.3922 180 -89.1335 -180 -7.79734 7.36217 -0.502392 9.27866 -6.11241 -18.7841 9.26371 -12.6756 -57.1767 -0 -0 64.8378 2.57774e-05 -9.45975 -22.0318 3.57645 3.58213e-07 -26.3824 -3.43899 6.44337 -49.6997 -0 -0 90.7474 0.000208861 22.7298 -15.1819 -6.26116 2.61349e-06 -4.29504 
1.8124 75.189 -0.167 -2.73699 88.4857 28.2324 0 -0 0 13.6823 -3.90836 15.1258 15.1418 -11.3346 9.56344e-06 55.5339 -1.42936 -2.40778 180 80.4622 180 -11.0352 1.52184 -0.147004 -5.35792 16.0255 -1.06442e-06 -56.5418 18.6534 18.5147 180 -90 -180 -8.17003 7.49003 -0.535704 9.13624 -6.228 -17.8705 9.00399 -12.6847 -56.2561 -0 -0 63.9391 -3.5004e-06 -9.58997 -22.0197 3.62455 -8.94364e-06 -26.6112 -4.18018 6.31924 -52.808 -0 -0 90.9951 -0.000135169 22.5433 -15.4798 -6.32178 5.09004e-06 -3.73754 
2.7557 75.481 -0.1453 0.324632 88.47 31.4961 0 -0 0 13.2164 -3.44294 15.5899 14.3713 -11.177 0.000104827 55.0982 -0.944188 -1.49417 180 79.6158 180 -10.738 1.64625 -0.154706 -5.27251 15.9645 -4.18967e-05 -56.3096 19.2953 19.627 0 -89.3644 0 -8.58608 7.52161 -0.565399 8.96083 -6.32396 -16.938 8.74179 -12.6747 -55.2743 -0 -0 63.0261 3.93897e-05 -9.72064 -22.0327 3.67691 -2.00955e-05 -26.89 -4.91372 6.17703 -55.8002 -0 -0 90.8858 4.0226e-05 22.4201 -15.6796 -6.36245 -3.27388e-06 -3.42489 
